<?xml version="1.0" encoding="utf-8"?>
<!-- Generator: Adobe Illustrator 26.0.0, SVG Export Plug-In . SVG Version: 6.00 Build 0)  -->
<svg version="1.1" id="Warstwa_1" xmlns="http://www.w3.org/2000/svg" xmlns:xlink="http://www.w3.org/1999/xlink" x="0px" y="0px"
	 viewBox="0 0 500 500" style="enable-background:new 0 0 500 500;" xml:space="preserve">
<style type="text/css">
	.st0{fill:#121331;}
	.st1{fill:#08a88a;}
	.st2{fill:#08a88a;}
	.st3{fill:none;stroke:#08a88a;stroke-width:12;stroke-linecap:round;stroke-linejoin:round;stroke-miterlimit:10;}
</style>
<path class="st0" d="M266.44,389.43h-46.2c-3.05,0-5.62-2.29-5.96-5.32l-9.38-82.18l-59.15,0c-8.3,0-16.09-3.24-21.95-9.11
	c-5.86-5.88-9.07-13.68-9.05-21.98l0.03-10.62c0.01-3.31,2.69-5.98,6-5.98c0.01,0,0.01,0,0.02,0c3.31,0.01,5.99,2.7,5.98,6.02
	l-0.03,10.62c-0.01,5.09,1.96,9.87,5.55,13.47c3.59,3.6,8.37,5.58,13.45,5.58l64.51,0c3.05,0,5.62,2.29,5.96,5.32l9.38,82.18h35.18
	c-2.12-5.76-12.32-10.5-12.45-10.55c-2.01-0.88-3.38-2.79-3.58-4.97l-7.31-82.25c0-0.06-0.01-0.12-0.01-0.18
	c-0.42-7.27-6.46-12.99-13.74-13.03l-46.32-0.21c-3.31-0.02-5.99-2.71-5.97-6.03c0.01-3.3,2.7-5.97,6-5.97c0.01,0,0.02,0,0.03,0
	l46.32,0.21c13.57,0.07,24.81,10.71,25.65,24.23l7,78.78c9.31,4.99,20.54,15.09,15.65,28.07
	C271.18,387.88,268.94,389.43,266.44,389.43z"/>
<path class="st0" d="M196.02,151.73c-0.97,0-1.95-0.13-2.93-0.39l-17.63-4.73l0,0c-12.72-3.41-20.3-16.53-16.89-29.26l4.26-15.91
	c1.65-6.14,5.6-11.29,11.14-14.49c5.54-3.2,11.97-4.05,18.12-2.4l5.52,1.48c6.14,1.65,11.29,5.6,14.49,11.14
	c3.2,5.54,4.05,11.97,2.41,18.12l-7.51,28.02C205.63,148.38,201.03,151.73,196.02,151.73z M178.56,135.02l17.01,4.56l7.34-27.39
	c0.82-3.05,0.39-6.25-1.21-9.01c-1.59-2.76-4.15-4.73-7.2-5.55l-5.52-1.48c-3.05-0.81-6.25-0.39-9.01,1.21
	c-2.76,1.59-4.73,4.15-5.55,7.2l-4.26,15.91C168.46,126.8,172.23,133.33,178.56,135.02L178.56,135.02z"/>
<path class="st0" d="M410.12,256H250c-3.31,0-6-2.69-6-6v-23.56c0-3.31,2.69-6,6-6s6,2.69,6,6V244h148.12v-14.69h-139.9
	c-3.31,0-6-2.69-6-6s2.69-6,6-6h145.9c3.31,0,6,2.69,6,6V250C416.12,253.31,413.43,256,410.12,256z"/>
<path class="st0" d="M158.35,389.43H89.88c-3.31,0-6-2.69-6-6s2.69-6,6-6h68.47c10.48,0,19-8.52,19-19v-56.5h-62.47
	c-17.09,0-31-13.91-31-31v-27.81c0-12.75-1.27-25.55-3.77-38.05l-9.46-47.3c-0.65-3.25,1.46-6.41,4.71-7.06
	c3.25-0.65,6.41,1.46,7.06,4.71l9.46,47.3c2.65,13.27,4,26.86,4,40.4v27.81c0,10.48,8.52,19,19,19h68.47c3.31,0,6,2.69,6,6v62.5
	C189.35,375.53,175.45,389.43,158.35,389.43z"/>
<path class="st0" d="M347.28,229.31h-43.91c-1.94,0-3.75-0.94-4.88-2.51c-1.13-1.58-1.42-3.6-0.8-5.43l22.81-66.72
	c0.83-2.43,3.11-4.06,5.68-4.06h43.91c1.94,0,3.75,0.94,4.88,2.51c1.13,1.58,1.42,3.6,0.8,5.43l-22.81,66.72
	C352.13,227.68,349.85,229.31,347.28,229.31z M311.76,217.31h31.23l18.71-54.72h-31.23L311.76,217.31z"/>
<path class="st2" d="M177.39,266.24h-56.61c-1.8,0-3.5-0.81-4.64-2.2s-1.59-3.22-1.24-4.99l16.35-80.9
	c3.17-15.68,17.09-27.05,33.08-27.05c7.98,0,15.71,2.83,21.77,7.96c2.53,2.14,2.84,5.93,0.7,8.46c-2.14,2.53-5.93,2.84-8.46,0.7
	c-3.95-3.35-8.79-5.12-14.01-5.12c-10.31,0-19.27,7.33-21.32,17.43l-14.9,73.71h44.37l10.53-52.03c0.66-3.25,3.82-5.34,7.07-4.69
	c3.25,0.66,5.35,3.82,4.69,7.07l-11.5,56.84C182.7,264.23,180.25,266.24,177.39,266.24z"/>
<path class="st2" d="M253.62,233.28c-0.46,0-0.91-0.05-1.36-0.16l-47.51-11.07c-0.8-0.19-1.56-0.54-2.22-1.03l-40.08-29.8
	c-0.04-0.03-0.08-0.06-0.12-0.08l-4.74-3.53c-2.66-1.98-3.21-5.74-1.23-8.4c1.98-2.66,5.74-3.21,8.4-1.23l4.66,3.47
	c0.04,0.03,0.08,0.05,0.11,0.08l39.16,29.11l45.19,10.53c2.71-0.45,4.97-1.34,6.71-2.66c3.75-2.82,4.92-7.44,5.25-10.77l-48.9-11.35
	c-0.81-0.19-1.57-0.54-2.23-1.04l-36.97-27.59c-2.65-1.99-3.19-5.75-1.2-8.4c1.99-2.65,5.75-3.19,8.4-1.2l0.88,0.66L220.88,185
	l52.32,12.15c2.45,0.57,4.28,2.6,4.59,5.09c0.09,0.69,1.99,16.88-9.97,25.87c-3.65,2.76-8.2,4.49-13.49,5.13
	C254.1,233.27,253.86,233.28,253.62,233.28z"/>
<path class="st0" d="M390.12,389.43h-71.93c-3.31,0-6-2.69-6-6c0-3.31,2.69-6,6-6h71.93c7.72,0,14-6.28,14-14V250c0-3.31,2.69-6,6-6
	s6,2.69,6,6v113.43C416.12,377.77,404.46,389.43,390.12,389.43z"/>
</svg>
