<?xml version="1.0" encoding="utf-8"?>
<!-- Generator: Adobe Illustrator 24.1.2, SVG Export Plug-In . SVG Version: 6.00 Build 0)  -->
<svg version="1.1" id="Warstwa_3" xmlns="http://www.w3.org/2000/svg" xmlns:xlink="http://www.w3.org/1999/xlink" x="0px" y="0px"
	 viewBox="0 0 430 430" style="enable-background:new 0 0 430 430;" xml:space="preserve">
<style type="text/css">
	.st0{fill:#121331;}
	.st1{fill:#08a88a;}
	.st2{fill:none;stroke:#121331;stroke-width:12;stroke-linecap:round;stroke-linejoin:round;stroke-miterlimit:10;}
	.st3{fill:none;stroke:#08a88a;stroke-width:12;stroke-linecap:round;stroke-linejoin:round;stroke-miterlimit:10;}
	.st4{fill:#08a88a;}
</style>
<g>
	<path class="st0" d="M340.91,322.73H54.88c-3.31,0-6-2.69-6-6s2.69-6,6-6h286.03c15.56,0,28.21-12.65,28.21-28.21V147.48
		c0-15.56-12.65-28.21-28.21-28.21H54.88c-3.31,0-6-2.69-6-6s2.69-6,6-6h286.03c22.17,0,40.21,18.04,40.21,40.21v135.04
		C381.12,304.69,363.08,322.73,340.91,322.73z"/>
	<g>
		<path class="st0" d="M280.33,126.77c-3.31,0-6-2.69-6-6v-7.5c0-3.31,2.69-6,6-6s6,2.69,6,6v7.5
			C286.33,124.08,283.65,126.77,280.33,126.77z"/>
		<path class="st0" d="M280.33,278.46c-3.31,0-6-2.69-6-6v-13.79c0-3.31,2.69-6,6-6s6,2.69,6,6v13.79
			C286.33,275.77,283.65,278.46,280.33,278.46z M280.33,227.9c-3.31,0-6-2.69-6-6v-13.79c0-3.31,2.69-6,6-6s6,2.69,6,6v13.79
			C286.33,225.21,283.65,227.9,280.33,227.9z M280.33,177.33c-3.31,0-6-2.69-6-6v-13.79c0-3.31,2.69-6,6-6s6,2.69,6,6v13.79
			C286.33,174.65,283.65,177.33,280.33,177.33z"/>
		<path class="st0" d="M280.33,322.73c-3.31,0-6-2.69-6-6v-7.5c0-3.31,2.69-6,6-6s6,2.69,6,6v7.5
			C286.33,320.04,283.65,322.73,280.33,322.73z"/>
	</g>
	<g>
		<path class="st1" d="M224.74,180.83H117.99c-3.31,0-6-2.69-6-6s2.69-6,6-6h106.75c3.31,0,6,2.69,6,6S228.05,180.83,224.74,180.83z
			"/>
		<path class="st1" d="M224.74,221H117.99c-3.31,0-6-2.69-6-6s2.69-6,6-6h106.75c3.31,0,6,2.69,6,6S228.05,221,224.74,221z"/>
		<path class="st1" d="M224.74,261.17H117.99c-3.31,0-6-2.69-6-6s2.69-6,6-6h106.75c3.31,0,6,2.69,6,6S228.05,261.17,224.74,261.17z
			"/>
	</g>
	<path class="st0" d="M54.88,322.73c-1.04,0-2.08-0.27-3.04-0.83c-2.85-1.68-3.8-5.36-2.12-8.22l18.2-30.87l-18.2-30.87
		c-1.11-1.88-1.11-4.22,0-6.1L67.92,215l-18.2-30.86c-1.11-1.88-1.11-4.22,0-6.1l18.2-30.86l-18.2-30.86
		c-1.68-2.85-0.73-6.53,2.12-8.22c2.86-1.68,6.53-0.73,8.22,2.12l20,33.91c1.11,1.88,1.11,4.22,0,6.1l-18.2,30.86l18.2,30.86
		c1.11,1.88,1.11,4.22,0,6.1l-18.2,30.86l18.2,30.87c1.11,1.88,1.11,4.22,0,6.1l-20,33.91C58.93,321.68,56.93,322.73,54.88,322.73z"
		/>
</g>
</svg>
