<svg width="97" height="96" fill="none" xmlns="http://www.w3.org/2000/svg"><path d="M68.038 0H28.962c-4.092 0-7.42 3.329-7.42 7.42v81.16c0 4.091 3.328 7.42 7.42 7.42h39.076c4.092 0 7.42-3.329 7.42-7.42V7.42c0-4.091-3.328-7.42-7.42-7.42ZM24.36 14.841h48.282V81.16H24.359V14.84Zm4.603-12.023h39.076a4.608 4.608 0 0 1 4.603 4.603v4.603H24.359V7.42a4.608 4.608 0 0 1 4.603-4.603Zm39.076 90.364H28.962a4.608 4.608 0 0 1-4.603-4.603v-4.602h48.282v4.602a4.608 4.608 0 0 1-4.603 4.603Z" fill="#000"/><path d="M45.494 8.83h6.012a1.409 1.409 0 1 0 0-2.818h-6.012a1.409 1.409 0 1 0 0 2.818ZM40.985 8.83a1.41 1.41 0 0 0 1.41-1.41 1.414 1.414 0 0 0-1.41-1.408 1.414 1.414 0 0 0-1.409 1.409 1.41 1.41 0 0 0 1.41 1.409ZM48.5 85.667a2.915 2.915 0 0 0-2.912 2.912 2.915 2.915 0 0 0 2.912 2.912 2.915 2.915 0 0 0 2.912-2.912 2.915 2.915 0 0 0-2.912-2.912Zm0 3.006a.094.094 0 1 1 0-.188.094.094 0 0 1 0 .188ZM68.038 18.035H28.962a1.41 1.41 0 0 0-1.41 1.41v9.017c0 .778.632 1.409 1.41 1.409h39.076c.778 0 1.41-.631 1.41-1.41v-9.017c0-.778-.632-1.409-1.41-1.409Zm-1.409 9.018H30.371v-6.2h36.258v6.2ZM68.038 34.568H28.962a1.41 1.41 0 0 0 0 2.818h39.076a1.409 1.409 0 1 0 0-2.819ZM63.53 43.397a1.409 1.409 0 0 0 0-2.818H33.47a1.41 1.41 0 0 0 0 2.818h30.06ZM68.038 49.597H40.985a1.409 1.409 0 0 0 0 2.818h27.053a1.409 1.409 0 0 0 0-2.818ZM31.968 46.591a4.42 4.42 0 0 0-4.415 4.415 4.42 4.42 0 0 0 4.415 4.415 4.42 4.42 0 0 0 4.415-4.415 4.42 4.42 0 0 0-4.415-4.415Zm0 6.012c-.88 0-1.597-.717-1.597-1.597s.716-1.597 1.597-1.597c.88 0 1.597.716 1.597 1.597 0 .88-.717 1.597-1.597 1.597ZM68.038 60.117H40.985a1.41 1.41 0 0 0 0 2.818h27.053a1.409 1.409 0 1 0 0-2.818ZM31.968 57.112a4.42 4.42 0 0 0-4.415 4.414 4.42 4.42 0 0 0 4.415 4.415 4.42 4.42 0 0 0 4.415-4.415 4.42 4.42 0 0 0-4.415-4.414Zm0 6.011c-.88 0-1.597-.716-1.597-1.597 0-.88.716-1.596 1.597-1.596.88 0 1.597.716 1.597 1.596 0 .881-.717 1.597-1.597 1.597ZM68.038 70.638H40.985a1.41 1.41 0 0 0 0 2.818h27.053a1.409 1.409 0 1 0 0-2.818ZM31.968 67.632a4.42 4.42 0 0 0-4.415 4.415 4.42 4.42 0 0 0 4.415 4.415 4.42 4.42 0 0 0 4.415-4.415 4.42 4.42 0 0 0-4.415-4.415Zm0 6.012c-.88 0-1.597-.717-1.597-1.597s.716-1.597 1.597-1.597c.88 0 1.597.716 1.597 1.597 0 .88-.717 1.597-1.597 1.597Z" fill="#000"/></svg>