<svg width="96" height="96" fill="none" xmlns="http://www.w3.org/2000/svg"><path d="M96 0H0v71.226h16.733a35.379 35.379 0 0 0-4.313 15.76c-1.815.631-3.13 2.34-3.13 4.369A4.65 4.65 0 0 0 13.936 96a4.65 4.65 0 0 0 4.645-4.645c0-1.993-1.268-3.682-3.034-4.34a32.243 32.243 0 0 1 4.808-15.79h10.687a16.845 16.845 0 0 0 3.848 9.291h-2.374v3.097h3.097v3.097h-3.097v3.096h3.097V96h24.774v-6.194h3.097V86.71h-3.097v-3.097h3.097v-3.097h-2.372a16.845 16.845 0 0 0 3.848-9.29h10.686a32.26 32.26 0 0 1 4.808 15.789c-1.766.658-3.035 2.347-3.035 4.34A4.65 4.65 0 0 0 82.064 96a4.65 4.65 0 0 0 4.646-4.645c0-2.029-1.315-3.738-3.13-4.37a35.36 35.36 0 0 0-4.313-15.76H96V0ZM13.936 92.903a1.55 1.55 0 0 1-1.549-1.548c0-.853.695-1.549 1.548-1.549.854 0 1.549.696 1.549 1.549s-.695 1.548-1.549 1.548Zm68.129-3.097c.853 0 1.548.696 1.548 1.549a1.55 1.55 0 0 1-1.549 1.548 1.55 1.55 0 0 1-1.548-1.548c0-.853.695-1.549 1.548-1.549ZM22.513 68.13c3.373-4.264 7.774-7.682 12.85-9.83a16.95 16.95 0 0 0-4.317 9.83h-8.534ZM57.29 92.903H38.71v-3.097h18.58v3.097Zm0-6.193H38.71v-3.097h18.58v3.097Zm.465-7.089-.465.455v.44h-7.742v-4.865c2.664-.692 4.645-3.097 4.645-5.974A6.2 6.2 0 0 0 48 63.484a6.2 6.2 0 0 0-6.194 6.193c0 2.877 1.982 5.282 4.646 5.974v4.865H38.71v-.44l-.465-.455a13.832 13.832 0 0 1-4.18-9.944c0-7.683 6.252-13.935 13.935-13.935 7.683 0 13.935 6.252 13.935 13.935 0 3.768-1.484 7.298-4.18 9.944ZM48 72.774a3.1 3.1 0 0 1-3.097-3.097A3.1 3.1 0 0 1 48 66.581a3.1 3.1 0 0 1 3.097 3.096A3.1 3.1 0 0 1 48 72.774Zm16.953-4.645a16.95 16.95 0 0 0-4.317-9.83c5.074 2.148 9.476 5.566 12.85 9.83h-8.533Zm27.95 0H77.357a35.83 35.83 0 0 0-14.86-12.387h18.304c.641 1.798 2.344 3.097 4.36 3.097a4.65 4.65 0 0 0 4.645-4.645 4.65 4.65 0 0 0-4.645-4.646c-2.016 0-3.719 1.3-4.36 3.097H15.199c-.641-1.798-2.344-3.097-4.36-3.097a4.65 4.65 0 0 0-4.645 4.645 4.65 4.65 0 0 0 4.645 4.646c2.016 0 3.719-1.3 4.36-3.097h18.303a35.83 35.83 0 0 0-14.86 12.387H3.098V15.484h89.806v52.645Zm-9.29-13.936a1.55 1.55 0 0 1 1.548-1.548 1.55 1.55 0 0 1 1.549 1.548 1.55 1.55 0 0 1-1.549 1.549 1.55 1.55 0 0 1-1.548-1.548Zm-71.226 0a1.55 1.55 0 0 1-1.548 1.549 1.55 1.55 0 0 1-1.549-1.548 1.55 1.55 0 0 1 1.549-1.549 1.55 1.55 0 0 1 1.548 1.548Zm80.516-41.806H3.097v-9.29h89.806v9.29Z" fill="#000"/><path d="M15.484 6.194h-9.29V9.29h9.29V6.194ZM21.677 6.194h-3.096V9.29h3.096V6.194ZM30.968 18.58H6.194v27.872h24.774V18.58ZM27.87 43.356H9.291V21.677h18.58v21.678ZM61.935 18.58h-27.87v27.872h27.87V18.58ZM58.84 43.356H37.16V21.677H58.84v21.678ZM89.806 18.58H65.032v27.872h24.774V18.58ZM86.71 43.356H68.129V21.677h18.58v21.678Z" fill="#000"/></svg>